<?xml version="1.0" encoding="UTF-8"?>
<svg id="Layer_1" xmlns="http://www.w3.org/2000/svg" version="1.1" viewBox="0 0 1410.5 303.6">
  <!-- Generator: Adobe Illustrator 29.4.0, SVG Export Plug-In . SVG Version: 2.1.0 Build 152)  -->
  <defs>
    <style>
      .st0 {
        fill: none;
      }
    </style>
  </defs>
  <g>
    <path d="M363.9,220.8l41.8-120.9c.5-1.4,2-2.2,3.4-2.2h24.5c1.4,0,2.9.7,3.4,2.2l41.8,120.9c.7,1.8-.2,3.1-2.2,3.1h-24.1c-1.4,0-2.5-.5-3.1-2.2l-5.4-16.9h-45.4l-5.4,16.9c-.5,1.6-1.6,2.2-3.1,2.2h-24c-2,0-3.1-1.3-2.3-3.1ZM435.9,179.6l-14.6-45.6-14.6,45.6h29.2Z"/>
    <path d="M488.5,189.5v-51.2c0-1.6,1.1-2.7,2.7-2.7h22c1.6,0,2.9,1.1,2.9,2.7v44.7c0,11.7,5,17.8,14.8,17.8s15.3-6.1,15.3-17.8v-44.7c0-1.6,1.3-2.7,2.9-2.7h21.8c1.6,0,2.9,1.1,2.9,2.7v82.8c0,1.6-1.3,2.7-2.9,2.7h-21.1c-1.6,0-2.7-.7-2.9-2.9l-.7-10.3c-5,9-13.1,15.3-25.9,15.3-18.4,0-31.7-13.5-31.7-36.6Z"/>
    <path d="M602.2,197.8v-40.9h-11c-1.6,0-2.7-1.1-2.7-2.7v-15.8c0-1.6,1.1-2.7,2.7-2.7h11v-20.7c0-1.6,1.3-2.7,2.9-2.7h22.2c1.6,0,2.9,1.1,2.9,2.7v20.7h13.5c1.6,0,2.7,1.1,2.7,2.7v15.8c0,1.6-1.1,2.7-2.7,2.7h-13.5v38c0,4.7,3.1,7.2,7.6,7.2s3.2,0,5.6-.2c1.8-.2,3.2.7,3.2,2.5v14.9c0,4.5-9.7,5.6-15.9,5.6-14.6,0-28.5-6.7-28.5-27.2Z"/>
    <path d="M655.7,179.8c0-26.1,19.6-46.3,46.3-46.3s46.5,20.2,46.5,46.3-19.8,46.3-46.5,46.3-46.3-20.2-46.3-46.3ZM702,200.8c11.2,0,19.8-8.1,19.8-21.1s-8.6-21.1-19.8-21.1-19.8,8.1-19.8,21.1,8.6,21.1,19.8,21.1Z"/>
    <path d="M765.7,221.2v-120.7c0-1.6,1.1-2.7,2.7-2.7h43.8c22.5,0,34.9,14.6,34.9,32.1s-8.1,22.3-16.2,26.3c12.2,3.2,24.5,13.5,24.5,31.9s-14.6,35.8-45,35.8h-42c-1.6,0-2.7-1.1-2.7-2.7ZM806.2,147.2c8.6,0,14-3.4,14-12.6s-5.4-11.7-14-11.7h-12.4v24.3h12.4ZM808.6,198.9c10.6,0,17.8-4.5,17.8-14.9s-7.2-14.6-17.8-14.6h-14.8v29.5h14.8Z"/>
    <path d="M866.4,179.8c0-26.1,16.9-46.3,41.4-46.3s21.8,5,27.6,13.3l.4-8.5c0-1.6,1.3-2.7,2.9-2.7h20c1.6,0,2.9,1.1,2.9,2.7v82.8c0,1.6-1.4,2.7-3.1,2.7h-19.8c-1.6,0-2.9-1.1-2.9-2.7l-.4-8.6c-5.9,8.5-14.9,13.5-27.6,13.5-24.5,0-41.4-20-41.4-46.3ZM913.8,201c12.1,0,20.4-8.5,20.4-21.4s-8.3-21.1-20.4-21.1-20.5,8.5-20.5,21.3,8.8,21.3,20.5,21.3Z"/>
    <path d="M981.5,221.2v-82.8c0-1.6,1.1-2.7,2.7-2.7h21.3c1.6,0,2.7.7,2.7,2.9l.9,10.3c5-9,13.1-15.3,25.8-15.3,18.4,0,31.9,13.5,31.9,36.6v51.2c0,1.6-1.3,2.7-2.9,2.7h-21.8c-1.6,0-2.9-1.1-2.9-2.7v-44.7c0-11.7-5-17.8-14.8-17.8s-15.3,6.1-15.3,17.8v44.7c0,1.6-1.3,2.7-2.9,2.7h-22c-1.6,0-2.7-1.1-2.7-2.7Z"/>
    <path d="M1082.4,179.8c0-26.1,16.9-46.3,41.4-46.3s21.8,5,27.6,13.3l.4-8.5c0-1.6,1.3-2.7,2.9-2.7h20c1.6,0,2.9,1.1,2.9,2.7v82.8c0,1.6-1.4,2.7-3.1,2.7h-19.8c-1.6,0-2.9-1.1-2.9-2.7l-.4-8.6c-5.9,8.5-14.9,13.5-27.6,13.5-24.5,0-41.4-20-41.4-46.3ZM1129.7,201c12.1,0,20.4-8.5,20.4-21.4s-8.3-21.1-20.4-21.1-20.5,8.5-20.5,21.3,8.8,21.3,20.5,21.3Z"/>
    <path d="M1197.4,221.2v-82.8c0-1.6,1.1-2.7,2.7-2.7h21.3c1.6,0,2.7.7,2.7,2.9l.9,10.3c5-9,13.1-15.3,25.8-15.3,18.4,0,31.9,13.5,31.9,36.6v51.2c0,1.6-1.3,2.7-2.9,2.7h-21.8c-1.6,0-2.9-1.1-2.9-2.7v-44.7c0-11.7-5-17.8-14.8-17.8s-15.3,6.1-15.3,17.8v44.7c0,1.6-1.3,2.7-2.9,2.7h-22c-1.6,0-2.7-1.1-2.7-2.7Z"/>
    <path d="M1298.3,179.8c0-26.1,16.9-46.3,41.4-46.3s21.8,5,27.6,13.3l.4-8.5c0-1.6,1.3-2.7,2.9-2.7h20c1.6,0,2.9,1.1,2.9,2.7v82.8c0,1.6-1.4,2.7-3.1,2.7h-19.8c-1.6,0-2.9-1.1-2.9-2.7l-.4-8.6c-5.9,8.5-14.9,13.5-27.6,13.5-24.5,0-41.4-20-41.4-46.3ZM1345.7,201c12.1,0,20.4-8.5,20.4-21.4s-8.3-21.1-20.4-21.1-20.5,8.5-20.5,21.3,8.8,21.3,20.5,21.3Z"/>
  </g>
  <g>
    <path class="st0" d="M102.7,48.9l-9.9-14.3-14.6,80.2c3.6,2.9,7.3,5.6,11.1,8.2l13.5-74Z"/>
    <path class="st0" d="M64,192.6l-7.9,43.2,14.3-9.9,4.7-25.7c-3.7-2.2-6.7-4.1-7.5-4.8,0,0-1.4-.9-3.6-2.7Z"/>
    <polygon class="st0" points="313.1 65.8 102.9 27.5 112.8 41.9 298.7 75.7 313.1 65.8"/>
    <path class="st0" d="M209.6,131.4c8.8-4.2,18.8-10.2,21.9-13.4,2.7-2.7,3.1-3.3,5.7-9.9,1.5-3.9,3.7-8.6,4.8-10.5,1.8-3.1,2.3-3.6,4.5-4.2,3.1-.8,4.9.1,12,6.2,9.2,7.9,10.8,10.5,8.7,14.1-.5.9-4.3,4.6-8.5,8.2-9.2,8.1-9.4,8.5-10.1,21-.9,15.8-3.1,23.9-10,35.9-2.4,4.1-5.8,9.3-7.9,11.7-7.7,9.3-19.4,18.1-31.5,23.7-6.7,3.1-29,9.3-35.3,9.8-1.9.2-17.3.4-31.5-1.8-13.8-2.1-26.6-6.6-26.6-6.6-7.9-3.2-12.8-5.5-19.4-9.1l-3.3,17.9,178.8,32.5,30.9-169.9L114.2,54.6l-13.7,75.3c16.1,9.2,28.9,13.2,46.1,14.5,20.6,1.5,41.6-2.8,63.1-13Z"/>
    <polygon class="st0" points="77.5 236.1 63.1 246 273.3 284.2 263.4 269.9 77.5 236.1"/>
    <polygon class="st0" points="273.5 262.9 283.4 277.3 320.1 75.9 305.7 85.8 273.5 262.9"/>
    <path d="M334.8,61.1c-.3-1.6-1.3-3-2.7-3.9-.7-.4-1.4-.8-2.2-.9L90.5,12.7c-.8-.1-1.6-.1-2.4,0-1.6.3-3,1.3-3.9,2.7-.4.7-.8,1.4-.9,2.2l-16,87.8c3.5,3.2,7.2,6.4,10.8,9.3l14.6-80.2,9.9,14.3-13.5,74c2.2,1.5,4.4,3,6.7,4.3,1.6,1,3.1,1.9,4.6,2.7l13.7-75.3,178.8,32.5-30.9,169.9-178.8-32.5,3.3-17.9c-1.7-.9-3.5-1.9-5.5-3.1-2-1.1-4-2.3-5.8-3.4l-4.7,25.7-14.3,9.9,7.9-43.2c-2.6-2.1-6.4-5.3-10.8-9.7l-11.9,65.4c-.1.8-.1,1.6,0,2.4.3,1.6,1.3,3,2.7,3.9.7.4,1.4.8,2.2.9l239.5,43.6c.8.1,1.6.1,2.4,0,1.6-.3,3-1.3,3.9-2.7.4-.7.8-1.4.9-2.2,0,0,42-230.6,42-230.6.1-.8.1-1.6,0-2.4ZM112.8,41.9l-9.9-14.3,210.2,38.3-14.3,9.9L112.8,41.9ZM63.1,246l14.3-9.9,185.9,33.8,9.9,14.3-210.2-38.3ZM283.4,277.3l-9.9-14.3,32.2-177.1,14.3-9.9-36.7,201.4Z"/>
    <path d="M35.9,112.2c-3.3-7.2-7.2-20.2-7.1-23.6,0-2.5.1-2.6,1.7-3.1.9-.3,2.1-.3,2.7,0,.6.3,2.9,3.2,5.2,6.3,7.7,10.7,16.5,20.4,26.1,29l2.8-15.5c-8.3-7.6-16.2-16.1-23-24.8-5.4-6.9-7.5-8.7-10.7-9.6-4.7-1.2-11.9,2.7-15.1,8.2-1.5,2.6-1.8,4-2,10.6-.7,23,3.5,43.3,12.3,59.5l2.7,4.9s5.1,10,15.9,22.3c2,2.3,4,4.4,5.9,6.3l6.7-36.8c-10.3-10.3-18.6-21.9-24-33.9Z"/>
    <path d="M98.9,145.1c16.1,8.5,30.8,12.6,49,13.7,13.3.8,22.4-.2,36.5-4,13.3-3.5,21-6.7,33.2-13.6,4.6-2.6,9.2-5,10.2-5.3,4.2-1.4,6.8,3.4,4.6,8.8-2.9,7.4-10.9,17-19.6,23.6-18.3,14-45.8,21-71.4,18.2-13.4-1.4-28.6-5.8-41.4-11.9-2.4-1.1-4.7-2.3-7-3.6l-6.5,35.7c6.6,3.6,11.5,5.9,19.4,9.1,0,0,12.8,4.5,26.6,6.6,14.3,2.2,29.6,2,31.5,1.8,6.4-.5,28.7-6.7,35.3-9.8,12-5.6,23.8-14.4,31.5-23.7,2.1-2.5,5.5-7.6,7.9-11.7,6.9-12,9.1-20.1,10-35.9.7-12.5.9-12.9,10.1-21,4.1-3.6,8-7.3,8.5-8.2,2.1-3.6.5-6.2-8.7-14.1-7.1-6.1-8.9-7.1-12-6.2-2.3.6-2.8,1.1-4.5,4.2-1.1,1.9-3.3,6.7-4.8,10.5-2.6,6.6-3,7.2-5.7,9.9-3.2,3.1-13.1,9.2-21.9,13.4-21.4,10.2-42.5,14.5-63.1,13-17.2-1.3-30-5.2-46.1-14.5l-2.6,14.6c.4.2.7.4,1.1.6Z"/>
    <path d="M86.5,137.8l2.7-14.9c-3.7-2.5-7.4-5.3-11.1-8.2l-2.8,15.2c3.6,2.8,7.3,5.4,11.1,7.8Z"/>
    <path d="M70.7,155.9l-6.7,36.7c2.3,1.8,3.6,2.7,3.6,2.7.9.7,3.8,2.6,7.5,4.8l6.6-36c-3.8-2.6-7.5-5.3-11-8.2Z"/>
    <path d="M81.7,164.1l-6.6,36c1.8,1.1,3.8,2.3,5.8,3.4,2,1.1,3.8,2.2,5.5,3.1l6.5-35.7c-3.9-2.1-7.6-4.4-11.3-6.9Z"/>
    <path d="M70.7,155.9c-3.8-3.1-7.4-6.4-10.8-9.8l-6.7,36.8c4.4,4.4,8.2,7.6,10.8,9.7l6.7-36.7Z"/>
    <path d="M97.8,144.5l2.6-14.6c-1.5-.9-3-1.8-4.6-2.7-2.2-1.4-4.5-2.8-6.7-4.3l-2.7,14.9c3.7,2.4,7.5,4.6,11.3,6.7Z"/>
    <path d="M75.4,129.9l2.8-15.2c-3.7-2.9-7.3-6-10.8-9.3l-2.8,15.5c3.5,3.2,7.2,6.2,10.9,9Z"/>
  </g>
</svg>