<?xml version="1.0" encoding="UTF-8"?>
<svg id="Layer_1" xmlns="http://www.w3.org/2000/svg" version="1.1" viewBox="0 0 340 340">
  <!-- Generator: Adobe Illustrator 29.4.0, SVG Export Plug-In . SVG Version: 2.1.0 Build 152)  -->
  <defs>
    <style>
      .st0 {
        fill: none;
      }
    </style>
  </defs>
  <path class="st0" d="M94.2,56.3l-10.3-14.8-15.1,83c3.8,3,7.6,5.8,11.4,8.4l13.9-76.6Z"/>
  <path class="st0" d="M54.2,205l-8.1,44.7,14.8-10.3,4.8-26.6c-3.8-2.3-6.9-4.2-7.8-4.9,0,0-1.4-1-3.8-2.8Z"/>
  <polygon class="st0" points="311.9 73.8 94.4 34.2 104.7 49.1 297 84.1 311.9 73.8"/>
  <path class="st0" d="M204.8,141.7c9.1-4.3,19.4-10.6,22.7-13.8,2.8-2.8,3.2-3.4,5.9-10.2,1.6-4,3.8-8.9,5-10.9,1.9-3.2,2.4-3.7,4.7-4.3,3.2-.9,5.1.1,12.4,6.4,9.5,8.2,11.1,10.9,9,14.6-.5.9-4.5,4.8-8.8,8.5-9.6,8.4-9.8,8.8-10.5,21.7-.9,16.3-3.2,24.8-10.3,37.1-2.4,4.2-6,9.6-8.1,12.1-8,9.6-20.1,18.7-32.5,24.5-6.9,3.2-30,9.6-36.5,10.2-2,.2-17.9.4-32.6-1.9-14.3-2.2-27.5-6.8-27.5-6.8-8.2-3.3-13.3-5.7-20.1-9.4l-3.4,18.5,184.9,33.7,32-175.8L106.1,62.3l-14.2,77.9c16.6,9.6,29.8,13.7,47.7,15,21.3,1.6,43-2.9,65.2-13.4Z"/>
  <polygon class="st0" points="68.1 250 53.3 260.2 270.7 299.8 260.5 285 68.1 250"/>
  <polygon class="st0" points="270.9 277.7 281.2 292.6 319.1 84.3 304.3 94.5 270.9 277.7"/>
  <path d="M334.4,69c-.4-1.6-1.4-3.1-2.8-4-.7-.5-1.5-.8-2.3-.9L81.6,18.9c-.8-.1-1.7-.1-2.5,0-1.6.4-3.1,1.4-4,2.8-.5.7-.8,1.5-.9,2.3l-16.5,90.8c3.7,3.4,7.4,6.6,11.2,9.6l15.1-83,10.3,14.8-13.9,76.6c2.3,1.6,4.6,3.1,6.9,4.5,1.6,1,3.2,1.9,4.7,2.8l14.2-77.9,184.9,33.7-32,175.8-184.9-33.7,3.4-18.5c-1.8-1-3.6-2-5.7-3.2-2.1-1.2-4.2-2.4-6-3.5l-4.8,26.6-14.8,10.3,8.1-44.7c-2.7-2.2-6.6-5.5-11.1-10.1l-12.3,67.6c-.1.8-.1,1.7,0,2.5.4,1.6,1.4,3.1,2.8,4,.7.5,1.5.8,2.3.9l247.7,45.1c.8.1,1.7.1,2.5,0,1.6-.4,3.1-1.4,4-2.8.5-.7.8-1.5.9-2.3l43.4-238.6c.1-.8.1-1.7,0-2.5ZM104.7,49.1l-10.3-14.8,217.5,39.6-14.8,10.3L104.7,49.1ZM53.3,260.2l14.8-10.3,192.4,35,10.3,14.8-217.5-39.6ZM281.2,292.6l-10.3-14.8,33.3-183.2,14.8-10.3-37.9,208.3Z"/>
  <path d="M25.1,121.8c-3.4-7.4-7.5-20.9-7.4-24.4,0-2.6.1-2.7,1.8-3.2,1-.3,2.2-.3,2.8,0,.6.3,3,3.3,5.4,6.5,8,11,17.1,21.1,27,30l2.9-16c-8.6-7.9-16.8-16.6-23.8-25.7-5.6-7.2-7.7-9-11.1-9.9-4.9-1.3-12.4,2.8-15.7,8.5-1.5,2.7-1.8,4.2-2,11-.7,23.8,3.6,44.8,12.7,61.6l2.7,5.1s5.3,10.3,16.5,23.1c2.1,2.4,4.2,4.6,6.1,6.6l6.9-38.1c-10.6-10.7-19.2-22.7-24.9-35.1Z"/>
  <path d="M90.3,155.8c16.6,8.8,31.8,13,50.7,14.1,13.8.8,23.1-.2,37.8-4.1,13.7-3.7,21.7-7,34.3-14.1,4.8-2.7,9.5-5.2,10.6-5.5,4.4-1.5,7,3.5,4.8,9.1-3,7.6-11.2,17.6-20.2,24.5-19,14.5-47.3,21.7-73.9,18.9-13.9-1.5-29.6-6-42.9-12.3-2.5-1.2-4.9-2.4-7.3-3.7l-6.7,36.9c6.8,3.7,11.9,6.1,20.1,9.4,0,0,13.2,4.7,27.5,6.8,14.8,2.3,30.6,2.1,32.6,1.9,6.6-.6,29.6-7,36.5-10.2,12.4-5.8,24.6-14.9,32.5-24.5,2.1-2.6,5.7-7.9,8.1-12.1,7.1-12.4,9.4-20.8,10.3-37.1.7-12.9.9-13.4,10.5-21.7,4.3-3.7,8.2-7.6,8.8-8.5,2.2-3.8.5-6.4-9-14.6-7.3-6.3-9.2-7.3-12.4-6.4-2.4.6-2.8,1.1-4.7,4.3-1.1,2-3.4,6.9-5,10.9-2.7,6.8-3.1,7.4-5.9,10.2-3.3,3.2-13.5,9.5-22.7,13.8-22.2,10.5-43.9,15-65.2,13.4-17.8-1.3-31.1-5.4-47.7-15l-2.7,15.1c.4.2.7.4,1.1.6Z"/>
  <path d="M77.5,148.3l2.8-15.4c-3.8-2.6-7.7-5.4-11.4-8.4l-2.9,15.8c3.7,2.9,7.6,5.6,11.5,8.1Z"/>
  <path d="M61.1,167l-6.9,38c2.4,1.9,3.8,2.8,3.8,2.8.9.7,4,2.7,7.8,4.9l6.8-37.3c-4-2.7-7.8-5.5-11.4-8.5Z"/>
  <path d="M72.5,175.5l-6.8,37.3c1.9,1.1,4,2.3,6,3.5,2.1,1.2,3.9,2.2,5.7,3.2l6.7-36.9c-4-2.2-7.9-4.6-11.7-7.1Z"/>
  <path d="M61.1,167c-3.9-3.2-7.6-6.6-11.1-10.1l-6.9,38.1c4.5,4.5,8.4,7.9,11.1,10.1l6.9-38Z"/>
  <path d="M66,140.2l2.9-15.8c-3.8-3-7.6-6.2-11.2-9.6l-2.9,16c3.6,3.3,7.4,6.4,11.3,9.4Z"/>
  <path d="M89.2,155.2l2.7-15.1c-1.6-.9-3.1-1.8-4.7-2.8-2.3-1.4-4.6-2.9-6.9-4.5l-2.8,15.4c3.8,2.5,7.7,4.8,11.7,6.9Z"/>
</svg>