<?xml version="1.0" encoding="UTF-8"?>
<svg id="Layer_1" xmlns="http://www.w3.org/2000/svg" version="1.1" viewBox="0 0 1017.2 469.6">
  <!-- Generator: Adobe Illustrator 29.4.0, SVG Export Plug-In . SVG Version: 2.1.0 Build 152)  -->
  <defs>
    <style>
      .st0 {
        fill: none;
      }
    </style>
  </defs>
  <g>
    <path d="M43.7,430.8l38-110c.5-1.3,1.8-2,3.1-2h22.3c1.3,0,2.6.7,3.1,2l38,110c.7,1.6-.2,2.8-2,2.8h-22c-1.3,0-2.3-.5-2.8-2l-4.9-15.4h-41.3l-4.9,15.4c-.5,1.5-1.5,2-2.8,2h-21.8c-1.8,0-2.8-1.1-2.1-2.8ZM109.3,393.3l-13.3-41.5-13.3,41.5h26.6Z"/>
    <path d="M157.2,402.3v-46.6c0-1.5,1-2.5,2.5-2.5h20c1.5,0,2.6,1,2.6,2.5v40.7c0,10.7,4.6,16.2,13.4,16.2s13.9-5.6,13.9-16.2v-40.7c0-1.5,1.1-2.5,2.6-2.5h19.8c1.5,0,2.6,1,2.6,2.5v75.4c0,1.5-1.1,2.5-2.6,2.5h-19.2c-1.5,0-2.5-.7-2.6-2.6l-.7-9.3c-4.6,8.2-12,13.9-23.6,13.9-16.7,0-28.9-12.3-28.9-33.3Z"/>
    <path d="M260.7,409.8v-37.2h-10c-1.5,0-2.5-1-2.5-2.5v-14.4c0-1.5,1-2.5,2.5-2.5h10v-18.9c0-1.5,1.1-2.5,2.6-2.5h20.2c1.5,0,2.6,1,2.6,2.5v18.9h12.3c1.5,0,2.5,1,2.5,2.5v14.4c0,1.5-1,2.5-2.5,2.5h-12.3v34.6c0,4.3,2.8,6.6,6.9,6.6s3,0,5.1-.2c1.6-.2,3,.7,3,2.3v13.6c0,4.1-8.9,5.1-14.4,5.1-13.3,0-25.9-6.1-25.9-24.8Z"/>
    <path d="M309.4,393.4c0-23.8,17.9-42.1,42.1-42.1s42.3,18.4,42.3,42.1-18,42.1-42.3,42.1-42.1-18.4-42.1-42.1ZM351.5,412.6c10.2,0,18-7.4,18-19.2s-7.9-19.2-18-19.2-18,7.4-18,19.2,7.9,19.2,18,19.2Z"/>
    <path d="M409.6,431.1v-109.9c0-1.5,1-2.5,2.5-2.5h39.8c20.5,0,31.8,13.3,31.8,29.2s-7.4,20.3-14.8,23.9c11.1,3,22.3,12.3,22.3,29s-13.3,32.6-41,32.6h-38.2c-1.5,0-2.5-1-2.5-2.5ZM446.5,363.7c7.9,0,12.8-3.1,12.8-11.5s-4.9-10.7-12.8-10.7h-11.3v22.1h11.3ZM448.6,410.8c9.7,0,16.2-4.1,16.2-13.6s-6.6-13.3-16.2-13.3h-13.4v26.9h13.4Z"/>
    <path d="M501.2,393.4c0-23.8,15.4-42.1,37.7-42.1s19.8,4.6,25.1,12.1l.3-7.7c0-1.5,1.1-2.5,2.6-2.5h18.2c1.5,0,2.6,1,2.6,2.5v75.4c0,1.5-1.3,2.5-2.8,2.5h-18c-1.5,0-2.6-1-2.6-2.5l-.3-7.9c-5.4,7.7-13.6,12.3-25.1,12.3-22.3,0-37.7-18.2-37.7-42.1ZM544.4,412.8c11,0,18.5-7.7,18.5-19.5s-7.5-19.2-18.5-19.2-18.7,7.7-18.7,19.3,8,19.3,18.7,19.3Z"/>
    <path d="M606,431.1v-75.4c0-1.5,1-2.5,2.5-2.5h19.3c1.5,0,2.5.7,2.5,2.6l.8,9.3c4.6-8.2,12-13.9,23.4-13.9,16.7,0,29,12.3,29,33.3v46.6c0,1.5-1.1,2.5-2.6,2.5h-19.8c-1.5,0-2.6-1-2.6-2.5v-40.7c0-10.7-4.6-16.2-13.4-16.2s-13.9,5.6-13.9,16.2v40.7c0,1.5-1.1,2.5-2.6,2.5h-20c-1.5,0-2.5-1-2.5-2.5Z"/>
    <path d="M697.9,393.4c0-23.8,15.4-42.1,37.7-42.1s19.8,4.6,25.1,12.1l.3-7.7c0-1.5,1.1-2.5,2.6-2.5h18.2c1.5,0,2.6,1,2.6,2.5v75.4c0,1.5-1.3,2.5-2.8,2.5h-18c-1.5,0-2.6-1-2.6-2.5l-.3-7.9c-5.4,7.7-13.6,12.3-25.1,12.3-22.3,0-37.7-18.2-37.7-42.1ZM741,412.8c11,0,18.5-7.7,18.5-19.5s-7.5-19.2-18.5-19.2-18.7,7.7-18.7,19.3,8,19.3,18.7,19.3Z"/>
    <path d="M802.6,431.1v-75.4c0-1.5,1-2.5,2.5-2.5h19.3c1.5,0,2.5.7,2.5,2.6l.8,9.3c4.6-8.2,12-13.9,23.4-13.9,16.7,0,29,12.3,29,33.3v46.6c0,1.5-1.1,2.5-2.6,2.5h-19.8c-1.5,0-2.6-1-2.6-2.5v-40.7c0-10.7-4.6-16.2-13.4-16.2s-13.9,5.6-13.9,16.2v40.7c0,1.5-1.1,2.5-2.6,2.5h-20c-1.5,0-2.5-1-2.5-2.5Z"/>
    <path d="M894.5,393.4c0-23.8,15.4-42.1,37.7-42.1s19.8,4.6,25.1,12.1l.3-7.7c0-1.5,1.1-2.5,2.6-2.5h18.2c1.5,0,2.6,1,2.6,2.5v75.4c0,1.5-1.3,2.5-2.8,2.5h-18c-1.5,0-2.6-1-2.6-2.5l-.3-7.9c-5.4,7.7-13.6,12.3-25.1,12.3-22.3,0-37.7-18.2-37.7-42.1ZM937.6,412.8c11,0,18.5-7.7,18.5-19.5s-7.5-19.2-18.5-19.2-18.7,7.7-18.7,19.3,8,19.3,18.7,19.3Z"/>
  </g>
  <g>
    <path class="st0" d="M407.6,65.3l-10.3-14.8-15.1,83c3.8,3,7.6,5.8,11.4,8.4l13.9-76.6Z"/>
    <path class="st0" d="M367.6,214l-8.1,44.7,14.8-10.3,4.8-26.6c-3.8-2.3-6.9-4.2-7.8-4.9,0,0-1.4-1-3.8-2.8Z"/>
    <polygon class="st0" points="625.3 82.8 407.8 43.2 418.1 58 610.4 93 625.3 82.8"/>
    <path class="st0" d="M518.2,150.6c9.1-4.3,19.4-10.6,22.7-13.8,2.8-2.8,3.2-3.4,5.9-10.2,1.6-4,3.8-8.9,5-10.9,1.9-3.2,2.4-3.7,4.7-4.3,3.2-.9,5.1.1,12.4,6.4,9.5,8.2,11.1,10.9,9,14.6-.5.9-4.5,4.8-8.8,8.5-9.6,8.4-9.8,8.8-10.5,21.7-.9,16.3-3.2,24.8-10.3,37.1-2.4,4.2-6,9.6-8.1,12.1-8,9.6-20.1,18.7-32.5,24.5-6.9,3.2-30,9.6-36.5,10.2-2,.2-17.9.4-32.6-1.9-14.3-2.2-27.5-6.8-27.5-6.8-8.2-3.3-13.3-5.7-20.1-9.4l-3.4,18.5,184.9,33.7,32-175.8-184.9-33.7-14.2,77.9c16.6,9.6,29.8,13.7,47.7,15,21.3,1.6,43-2.9,65.2-13.4Z"/>
    <polygon class="st0" points="381.5 258.9 366.7 269.2 584.1 308.8 573.9 293.9 381.5 258.9"/>
    <polygon class="st0" points="584.3 286.7 594.6 301.5 632.5 93.2 617.7 103.5 584.3 286.7"/>
    <path d="M647.7,77.9c-.4-1.6-1.4-3.1-2.8-4-.7-.5-1.5-.8-2.3-.9l-247.7-45.1c-.8-.1-1.7-.1-2.5,0-1.6.4-3.1,1.4-4,2.8-.5.7-.8,1.5-.9,2.3l-16.5,90.8c3.7,3.4,7.4,6.6,11.2,9.6l15.1-83,10.3,14.8-13.9,76.6c2.3,1.6,4.6,3.1,6.9,4.5,1.6,1,3.2,1.9,4.7,2.8l14.2-77.9,184.9,33.7-32,175.8-184.9-33.7,3.4-18.5c-1.8-1-3.6-2-5.7-3.2-2.1-1.2-4.2-2.4-6-3.5l-4.8,26.6-14.8,10.3,8.1-44.7c-2.7-2.2-6.6-5.5-11.1-10.1l-12.3,67.6c-.1.8-.1,1.7,0,2.5.4,1.6,1.4,3.1,2.8,4,.7.5,1.5.8,2.3.9l247.7,45.1c.8.1,1.7.1,2.5,0,1.6-.4,3.1-1.4,4-2.8.5-.7.8-1.5.9-2.3l43.4-238.6c.1-.8.1-1.7,0-2.5ZM418.1,58l-10.3-14.8,217.5,39.6-14.8,10.3-192.4-35ZM366.7,269.2l14.8-10.3,192.4,35,10.3,14.8-217.5-39.6ZM594.6,301.5l-10.3-14.8,33.3-183.2,14.8-10.3-37.9,208.3Z"/>
    <path d="M338.5,130.8c-3.4-7.4-7.5-20.9-7.4-24.4,0-2.6.1-2.7,1.8-3.2,1-.3,2.2-.3,2.8,0,.6.3,3,3.3,5.4,6.5,8,11,17.1,21.1,27,30l2.9-16c-8.6-7.9-16.8-16.6-23.8-25.7-5.6-7.2-7.7-9-11.1-9.9-4.9-1.3-12.4,2.8-15.7,8.5-1.5,2.7-1.8,4.2-2,11-.7,23.8,3.6,44.8,12.7,61.6l2.7,5.1s5.3,10.3,16.5,23.1c2.1,2.4,4.2,4.6,6.1,6.6l6.9-38.1c-10.6-10.7-19.2-22.7-24.9-35.1Z"/>
    <path d="M403.7,164.8c16.6,8.8,31.8,13,50.7,14.1,13.8.8,23.1-.2,37.8-4.1,13.7-3.7,21.7-7,34.3-14.1,4.8-2.7,9.5-5.2,10.6-5.5,4.4-1.5,7,3.5,4.8,9.1-3,7.6-11.2,17.6-20.2,24.5-19,14.5-47.3,21.7-73.9,18.9-13.9-1.5-29.6-6-42.9-12.3-2.5-1.2-4.9-2.4-7.3-3.7l-6.7,36.9c6.8,3.7,11.9,6.1,20.1,9.4,0,0,13.2,4.7,27.5,6.8,14.8,2.3,30.6,2.1,32.6,1.9,6.6-.6,29.6-7,36.5-10.2,12.4-5.8,24.6-14.9,32.5-24.5,2.1-2.6,5.7-7.9,8.1-12.1,7.1-12.4,9.4-20.8,10.3-37.1.7-12.9.9-13.4,10.5-21.7,4.3-3.7,8.2-7.6,8.8-8.5,2.2-3.8.5-6.4-9-14.6-7.3-6.3-9.2-7.3-12.4-6.4-2.4.6-2.8,1.1-4.7,4.3-1.1,2-3.4,6.9-5,10.9-2.7,6.8-3.1,7.4-5.9,10.2-3.3,3.2-13.5,9.5-22.7,13.8-22.2,10.5-43.9,15-65.2,13.4-17.8-1.3-31.1-5.4-47.7-15l-2.7,15.1c.4.2.7.4,1.1.6Z"/>
    <path d="M390.9,157.3l2.8-15.4c-3.8-2.6-7.7-5.4-11.4-8.4l-2.9,15.8c3.7,2.9,7.6,5.6,11.5,8.1Z"/>
    <path d="M374.5,176l-6.9,38c2.4,1.9,3.8,2.8,3.8,2.8.9.7,4,2.7,7.8,4.9l6.8-37.3c-4-2.7-7.8-5.5-11.4-8.5Z"/>
    <path d="M385.9,184.5l-6.8,37.3c1.9,1.1,4,2.3,6,3.5,2.1,1.2,3.9,2.2,5.7,3.2l6.7-36.9c-4-2.2-7.9-4.6-11.7-7.1Z"/>
    <path d="M374.5,176c-3.9-3.2-7.6-6.6-11.1-10.1l-6.9,38.1c4.5,4.5,8.4,7.9,11.1,10.1l6.9-38Z"/>
    <path d="M379.4,149.1l2.9-15.8c-3.8-3-7.6-6.2-11.2-9.6l-2.9,16c3.6,3.3,7.4,6.4,11.3,9.4Z"/>
    <path d="M402.6,164.2l2.7-15.1c-1.6-.9-3.1-1.8-4.7-2.8-2.3-1.4-4.6-2.9-6.9-4.5l-2.8,15.4c3.8,2.5,7.7,4.8,11.7,6.9Z"/>
  </g>
</svg>