<?xml version="1.0" encoding="UTF-8"?>
<svg id="Layer_1" xmlns="http://www.w3.org/2000/svg" xmlns:xlink="http://www.w3.org/1999/xlink" version="1.1" viewBox="0 0 1361.8 587.9">
  <!-- Generator: Adobe Illustrator 29.4.0, SVG Export Plug-In . SVG Version: 2.1.0 Build 152)  -->
  <defs>
    <style>
      .st0 {
        fill: #ffd132;
      }

      .st1 {
        fill-rule: evenodd;
      }

      .st2 {
        fill: #fff;
      }
    </style>
  </defs>
  <path d="M42.4,368.3c-1.7-.5-3.2-1.9-3.8-3.6-.2-.6-.3-2.4-.3-7v-6.2s2.2,0,2.2,0h2.2v5.5c0,5.1,0,5.5.4,6.2.6,1,1.2,1.3,2.6,1.3,1,0,1.2-.1,1.9-.7.4-.4.9-1,1-1.5.1-.4.2-3.1.2-5.8v-5h4.3v16.5h-4.3v-2l-.7.8c-1.2,1.3-3.8,2-5.8,1.4ZM73,368.3c-2.4-.7-4.3-2.2-5.3-4.4-.6-1.2-.6-1.4-.6-4s0-2.8.6-3.9c1.3-2.7,3.5-4.3,6.5-4.8,1.6-.3,3.4,0,5.1.8,1.2.6,2.9,2.4,3.6,3.9.6,1.2.6,1.5.6,3.9,0,2.4,0,2.7-.6,4-.7,1.5-2.3,3.2-3.7,3.9-1.7.9-4.3,1.1-6.2.6ZM76.6,364.4c2.6-1,3.6-5.4,1.6-8-.6-.8-2-1.5-3-1.5-1,0-2.5.8-3.1,1.7-1.6,2.4-.9,6.6,1.2,7.7.8.4,2.3.5,3.2.1ZM109.6,368.3c-1.2-.3-2-.7-2.7-1.6-1.5-1.8-1.5-4.9,0-6.4,1-1,2.3-1.4,5.1-1.8,2.3-.3,3.1-.5,3.9-.7.3,0,.4-.3.4-.8,0-1.4-1.2-2.3-2.9-2.3s-2.1.4-2.8,1.3l-.5.7h-2c0,0-2-.1-2-.1l.5-1.3c1.1-2.7,3.5-4.1,6.8-4.1,2.5,0,3.9.5,5.3,1.9,1.6,1.7,1.7,1.9,1.8,9v6.1c0,0-2.1,0-2.1,0h-2.2v-.9c0-.9,0-.9-.3-.4-.2.3-.8.7-1.3,1.1-.8.5-1.3.6-2.6.6-.9,0-2,0-2.5-.1ZM114.6,364.7c1.2-.6,1.7-1.6,1.7-3.2s0-1.3-.2-1.3c-.1,0-1.3.4-2.7.7-2.7.6-3.4,1.1-3.4,2.3,0,1.8,2.4,2.7,4.6,1.6ZM144.7,368.3c-1.2-.3-2-.7-2.7-1.6-1.5-1.8-1.5-4.9,0-6.4,1-1,2.2-1.4,5.2-1.8,3.7-.5,4.2-.7,4.2-1.3,0-1.5-1.1-2.5-2.9-2.5-1.3,0-2.4.5-2.9,1.3-.4.6-.4.6-2.4.6s-2.2,0-1.3-1.9c1.5-3.1,5.4-4.4,9.6-3.2,1.4.4,2.8,1.6,3.5,3l.6,1.1v6.2c0,0,.1,6.2.1,6.2h-4.4v-.9c0-.9,0-.9-.3-.4-.2.3-.8.7-1.3,1.1-.8.5-1.3.6-2.6.6-.9,0-2,0-2.5-.1ZM149.7,364.7c1.3-.6,1.8-1.6,1.8-3.2v-1.3l-2.7.6c-3,.7-3.6,1.1-3.6,2.4s2.4,2.6,4.5,1.5ZM179.2,368.3c-2-.6-3.3-2.1-3.6-4.3-.2-2.2.8-3.9,2.8-4.7.6-.2,2.3-.6,3.6-.8,4.1-.6,4-.5,4.1-1.5,0-.6,0-.9-.6-1.5-.5-.6-.8-.7-1.9-.8-1.5-.1-2.4.2-3.1,1.2-.4.6-.5.6-2.4.7-2.3,0-2.3,0-1.4-2,.7-1.5,2-2.6,3.6-3.2,1.5-.6,4.4-.6,6,0,1.4.5,2.9,1.8,3.6,3.1.5,1,.5,1.3.6,7.3v6.2c0,0-2.1,0-2.1,0-1.2,0-2.2,0-2.2-.2,0,0,0-.5,0-.9v-.7s-.5.6-.5.6c-1.1,1.4-4.2,2-6.6,1.4ZM184.4,364.7c1.3-.6,1.7-1.2,1.8-3v-1.6c0,0-2.7.7-2.7.7-1.5.4-2.9.8-3.1,1s-.4.7-.4,1.1c-.3,1.9,2.1,2.9,4.4,1.8ZM60,367.9c-1-.5-1.9-1.6-2.2-2.9-.1-.5-.2-2.9-.2-5.6v-4.7h-2.6v-3.2h1.3c0,0,1.3.2,1.3.2v-4.2h4.3v2c0,0,.1,2,.1,2h3.8v3.1h-3.9v4.4c.1,4.4.1,4.4.7,5,.5.5.7.6,1.9.5h1.4c0,0,0,1.8,0,1.8v1.9c0,0-2.4,0-2.4,0-2.1,0-2.5,0-3.3-.4ZM16.9,363.5c.9-2.5,2.7-7.7,4-11.4l2.4-6.8h2.9c0,0,2.9-.1,2.9-.1l.5,1.4c1.1,3.4,3.4,10,4.8,14.1.9,2.4,1.7,5,2,5.6s.5,1.4.5,1.6c.1.3,0,.4-2.2.4h-2.4l-.9-2.5-.9-2.5h-4.4c0,0-4.4-.1-4.4-.1l-.8,2.6-.8,2.6h-2.4c0,0-2.4.1-2.4.1l1.6-4.6ZM29.1,358.6c0,0-.7-2.2-1.5-4.6l-1.5-4.4-1.2,3.9c-.7,2.1-1.3,4.2-1.4,4.5-.1.3-.2.7-.2.7s1.3,0,2.9,0,2.9,0,2.9-.2ZM86,356.6v-11.5h6.1c5.6.1,6.2.2,7.2.6,2.6,1.1,3.6,2.7,3.6,5.7,0,1-.1,2-.2,2.3-.4.7-1.3,1.7-2,2l-.6.3.9.4c2,1,2.9,2.6,2.9,5.3,0,2.9-1.3,4.8-3.7,5.8-1.1.5-1.6.5-7.7.6h-6.5c0,0,0-11.4,0-11.4ZM97.5,363.8c1-.6,1.6-1.6,1.5-2.9-.2-2.1-1.2-2.5-5.2-2.5h-2.9v5.9h3c2.5,0,3.1,0,3.7-.4ZM96.9,354.1c1.2-.6,1.6-2.3.9-3.7-.6-1.2-1.2-1.4-4.3-1.4h-2.7v5.4h2.7c2,0,2.9,0,3.4-.3ZM123.7,359.8v-8.3h2s2,0,2,0v1c0,0,.1,1,.1,1l.6-.7c1.3-1.6,4.5-2.2,6.5-1.3,1.3.6,2.6,1.8,3.1,3.1.5,1.1.5,1.4.6,7.3v6.1c0,0-2.1,0-2.1,0h-2.2v-5.3c0-4,0-5.5-.3-6-.9-2.1-3.6-2.5-5.3-.8l-.6.7v5.7c0,0-.1,5.7-.1,5.7h-4.3v-8.3ZM158.6,359.8v-8.3h2s2,0,2,0v1c0,0,.1,1,.1,1l.6-.7c.3-.4,1.1-.9,1.7-1.2,2.9-1.4,6.6,0,7.9,3,.5,1.1.5,1.4.6,7.3v6.1c0,0-2.1,0-2.1,0h-2.2v-5.5c0-4.9,0-5.6-.4-6.2-1-1.9-4-2-5.3-.2-.4.6-.5.9-.5,6.2v5.6h-4.4v-8.3Z"/>
  <path d="M562.5,401.4c.2-.2.5-.5.6-.8,1.5-2.2.9-5.1-1.2-6.6-.6-.4-1.3-.7-2-.8.3-2.8.4-10.1-4.4-19.8,1.7-.6,2.8-2.4,2.4-4.2s-.9-2-1.8-2.6c1.5-1.7,2.3-4.7,1.7-7.9-.6-3.2-2.4-5.8-4.4-6.8.7-.8,1-1.9.8-3-.3-1.8-2-3.1-3.8-3.1.8-9.5-1.2-15.9-2.6-19,.5-.3.9-.8,1.3-1.3,1.5-2.2.9-5.1-1.2-6.6-.3-.2-.6-.3-.9-.5.4-.3.7-.6,1-1,1.2-1.7.9-4-.6-5.1-1.6-1.1-3.8-.5-5,1.2-.3.4-.5.9-.6,1.3-.2-.2-.5-.5-.8-.6-2.2-1.5-5.1-.9-6.6,1.2-.3.4-.5.8-.6,1.3-2-.3-6.3-.5-11.8,2-.8-1.3-2.3-2-3.9-1.7s-2,.9-2.6,1.8c-1.7-1.5-4.7-2.3-7.9-1.7s-5.8,2.4-6.8,4.4c-.8-.7-1.9-1-3-.7s-2.7,1.5-3,3c-6-.4-9.9,1.4-11.7,2.4-.3-.4-.6-.7-1-1-2.2-1.5-5.1-.9-6.6,1.2-.2.3-.3.6-.5.9-.3-.4-.6-.7-1-1-1.7-1.2-4-.9-5.1.7-1.1,1.6-.5,3.8,1.2,5,.4.3.9.5,1.3.6-.2.2-.5.5-.6.8-1.5,2.2-.9,5.1,1.2,6.6.5.4,1.1.6,1.7.7-.2,3.4.2,10.1,4.5,18.6-1.7.6-2.8,2.4-2.4,4.2s.9,2,1.8,2.6c-1.6,1.7-2.3,4.7-1.7,7.9s2.4,5.8,4.4,6.8c-.7.8-1,1.9-.8,3,.3,1.8,2,3.1,3.8,3.1-1,10.7,1.8,17.5,3.1,20-.6.3-1.1.8-1.6,1.4-1.5,2.2-.9,5.1,1.2,6.6.3.2.6.3.9.5-.4.3-.7.6-1,1-1.2,1.7-.9,4,.6,5.1,1.6,1.1,3.8.5,5-1.2.3-.4.5-.9.6-1.3.2.2.5.5.8.6,2.2,1.5,5.1.9,6.6-1.2.5-.7.8-1.5.8-2.4,2.2.3,6.2.3,11.4-2.1.8,1.3,2.3,2,3.9,1.7s2-.9,2.6-1.8c1.7,1.5,4.7,2.3,7.9,1.7s5.8-2.4,6.8-4.4c.8.7,1.9,1,3,.7s2.7-1.5,3-3c5.6.3,9.4-1.1,11.3-2.2.3.7.9,1.4,1.6,1.9,2.2,1.5,5.1.9,6.6-1.2.2-.3.3-.6.5-.9.3.4.6.7,1,1,1.7,1.2,4,.9,5.1-.6,1.1-1.6.5-3.8-1.2-5-.4-.3-.9-.5-1.3-.6ZM551.8,397.5l-56.2,10.5-13.6-72.5,56.2-10.5,13.6,72.5h0Z"/>
  <g>
    <path d="M468.9,390.7l-1.5-1.2c-4.9-3.9-8.9-9.8-11.7-17.1-.8-2.1-.9-2.6-.8-3.6.3-2.2,2-4.3,3.7-4.6,1.1-.2,2,.1,4.6,1.6,6.9,3.9,15,6.7,22.4,7.8,7.2,1.1,12.1.8,18.2-1.3,6.7-2.2,12.7-6.4,18.1-12.4,2.2-2.5,4.5-5.7,5.1-7.1.5-1.2.5-1.4.5-3.9,0-1.4,0-3.2.1-3.9.2-1.2.2-1.4.9-1.9.9-.7,1.6-.6,4.6.4,3.9,1.3,4.8,1.9,4.6,3.3s-.8,2-1.6,3.7c-1.8,3.8-1.8,3.9-.4,7.9,1.8,5.1,2.2,7.9,1.6,12.6s-.6,3.7-.9,4.7c-1.2,3.9-3.7,8.3-6.7,11.6-1.7,1.9-7.9,6.7-9.8,7.8-.6.3-5.4,2.4-10.1,3.6-4.6,1.2-9.2,1.4-9.2,1.4-3.7,0-5.6,0-9.4-.5-2.4-.3-4.7-.6-5.3-.8,0,0-3.8-.8-8.9-3.2s-7.9-4.9-7.9-4.9Z"/>
    <path class="st2" d="M493.2,388c4.8.2,10.2-.4,14.6-1.7,8.4-2.5,16.1-8.3,20-15.1,1.9-3.2,3.1-7.3,3-10,0-2-1.5-3.2-2.6-2.2-.3.2-1.4,1.6-2.5,3-2.9,3.8-4.9,5.8-8.6,8.7-3.9,3.1-6.7,4.6-10.9,6.1-5.9,2.1-11,2.7-17.2,2.2-8.9-.8-17.9-3.8-26-8.7-1.1-.7-2.2-1.3-2.5-1.3s-.6.1-.9.3c-.4.4-.4.4-.1,1.2.4,1.1,3.4,4.6,5.3,6.5,7,6.4,17.7,10.6,28.4,11.1Z"/>
  </g>
  <image width="392" height="265" transform="translate(196.7 384.2)" xlink:href="../../../../Library/Caches/com.linebreak.CloudAppMacOSX/draggingCache/019904d1-5bed-77b4-934d-d194854c8223/Untitled Project - Kittl 2025-09-01 at 12.27.33 pm.jpg"/>
  <rect class="st0" x="17.2" y="82.1" width="251.7" height="144.9"/>
  <g>
    <g>
      <path d="M59.3,193.5l6.9-19.8c0-.2.3-.4.6-.4h4c.2,0,.5.1.6.4l6.9,19.8c.1.3,0,.5-.4.5h-4c-.2,0-.4,0-.5-.4l-.9-2.8h-7.5l-.9,2.8c0,.3-.3.4-.5.4h-3.9c-.3,0-.5-.2-.4-.5ZM71.1,186.7l-2.4-7.5-2.4,7.5h4.8Z"/>
      <path d="M79.8,188.3v-8.4c0-.3.2-.4.4-.4h3.6c.3,0,.5.2.5.4v7.3c0,1.9.8,2.9,2.4,2.9s2.5-1,2.5-2.9v-7.3c0-.3.2-.4.5-.4h3.6c.3,0,.5.2.5.4v13.6c0,.3-.2.4-.5.4h-3.5c-.3,0-.4-.1-.5-.5v-1.7c-.9,1.5-2.3,2.5-4.4,2.5-3,0-5.2-2.2-5.2-6Z"/>
      <path d="M98.4,189.7v-6.7h-1.8c-.3,0-.4-.2-.4-.4v-2.6c0-.3.2-.4.4-.4h1.8v-3.4c0-.3.2-.4.5-.4h3.6c.3,0,.5.2.5.4v3.4h2.2c.3,0,.4.2.4.4v2.6c0,.3-.2.4-.4.4h-2.2v6.2c0,.8.5,1.2,1.2,1.2s.5,0,.9,0c.3,0,.5.1.5.4v2.5c0,.7-1.6.9-2.6.9-2.4,0-4.7-1.1-4.7-4.5Z"/>
      <path d="M107.2,186.7c0-4.3,3.2-7.6,7.6-7.6s7.6,3.3,7.6,7.6-3.3,7.6-7.6,7.6-7.6-3.3-7.6-7.6ZM114.8,190.2c1.8,0,3.3-1.3,3.3-3.5s-1.4-3.5-3.3-3.5-3.3,1.3-3.3,3.5,1.4,3.5,3.3,3.5Z"/>
      <path d="M125.3,193.5v-19.8c0-.3.2-.4.4-.4h7.2c3.7,0,5.7,2.4,5.7,5.3s-1.3,3.7-2.7,4.3c2,.5,4,2.2,4,5.2s-2.4,5.9-7.4,5.9h-6.9c-.3,0-.4-.2-.4-.4ZM131.9,181.4c1.4,0,2.3-.6,2.3-2.1s-.9-1.9-2.3-1.9h-2v4h2ZM132.3,189.8c1.7,0,2.9-.7,2.9-2.5s-1.2-2.4-2.9-2.4h-2.4v4.8h2.4Z"/>
      <path d="M141.8,186.7c0-4.3,2.8-7.6,6.8-7.6s3.6.8,4.5,2.2v-1.4c0-.3.3-.4.5-.4h3.3c.3,0,.5.2.5.4v13.6c0,.3-.2.4-.5.4h-3.3c-.3,0-.5-.2-.5-.4v-1.4c-1,1.4-2.5,2.2-4.6,2.2-4,0-6.8-3.3-6.8-7.6ZM149.6,190.2c2,0,3.3-1.4,3.3-3.5s-1.4-3.5-3.3-3.5-3.4,1.4-3.4,3.5,1.4,3.5,3.4,3.5Z"/>
      <path d="M160.7,193.5v-13.6c0-.3.2-.4.4-.4h3.5c.3,0,.4.1.4.5v1.7c1-1.5,2.3-2.5,4.4-2.5,3,0,5.2,2.2,5.2,6v8.4c0,.3-.2.4-.5.4h-3.6c-.3,0-.5-.2-.5-.4v-7.3c0-1.9-.8-2.9-2.4-2.9s-2.5,1-2.5,2.9v7.3c0,.3-.2.4-.5.4h-3.6c-.3,0-.4-.2-.4-.4Z"/>
      <path d="M177.3,186.7c0-4.3,2.8-7.6,6.8-7.6s3.6.8,4.5,2.2v-1.4c0-.3.3-.4.5-.4h3.3c.3,0,.5.2.5.4v13.6c0,.3-.2.4-.5.4h-3.3c-.3,0-.5-.2-.5-.4v-1.4c-1,1.4-2.5,2.2-4.6,2.2-4,0-6.8-3.3-6.8-7.6ZM185,190.2c2,0,3.3-1.4,3.3-3.5s-1.4-3.5-3.3-3.5-3.4,1.4-3.4,3.5,1.4,3.5,3.4,3.5Z"/>
      <path d="M196.2,193.5v-13.6c0-.3.2-.4.4-.4h3.5c.3,0,.4.1.4.5v1.7c1-1.5,2.3-2.5,4.4-2.5,3,0,5.2,2.2,5.2,6v8.4c0,.3-.2.4-.5.4h-3.6c-.3,0-.5-.2-.5-.4v-7.3c0-1.9-.8-2.9-2.4-2.9s-2.5,1-2.5,2.9v7.3c0,.3-.2.4-.5.4h-3.6c-.3,0-.4-.2-.4-.4Z"/>
      <path d="M212.7,186.7c0-4.3,2.8-7.6,6.8-7.6s3.6.8,4.5,2.2v-1.4c0-.3.3-.4.5-.4h3.3c.3,0,.5.2.5.4v13.6c0,.3-.2.4-.5.4h-3.3c-.3,0-.5-.2-.5-.4v-1.4c-1,1.4-2.5,2.2-4.6,2.2-4,0-6.8-3.3-6.8-7.6ZM220.5,190.2c2,0,3.3-1.4,3.3-3.5s-1.4-3.5-3.3-3.5-3.4,1.4-3.4,3.5,1.4,3.5,3.4,3.5Z"/>
    </g>
    <g>
      <path d="M160.1,168.2c.2,0,.3-.2.5-.3,1.2-.9,1.4-2.5.5-3.7-.2-.3-.5-.6-.9-.8.6-1.4,2-5.2,1.2-11,1,0,1.9-.8,2-1.8s-.1-1.2-.5-1.7c1.1-.6,2-2,2.3-3.8s-.2-3.4-1.1-4.3c.5-.3.8-.8.9-1.4.1-1-.5-2-1.4-2.3,2.1-4.8,2.2-8.5,2-10.3.3,0,.6-.2.9-.4,1.2-.9,1.4-2.5.5-3.7-.1-.1-.2-.3-.4-.4.2,0,.5-.2.7-.4.9-.7,1.2-1.9.6-2.7-.6-.8-1.9-.9-2.8-.2-.2.2-.4.4-.5.6,0-.2-.2-.3-.3-.5-.9-1.2-2.5-1.4-3.7-.5-.2.2-.4.3-.5.5-1-.5-3.2-1.4-6.5-1-.2-.8-.9-1.4-1.7-1.6s-1.2.1-1.7.5c-.6-1.1-2-2-3.8-2.3s-3.4.2-4.3,1.1c-.3-.5-.8-.8-1.4-.9s-1.7.3-2.1,1c-3.1-1.3-5.4-1.1-6.5-.8,0-.2-.2-.5-.4-.7-.9-1.2-2.5-1.4-3.7-.5-.1.1-.3.2-.4.4,0-.2-.2-.5-.4-.7-.7-.9-1.9-1.2-2.7-.6-.8.6-.9,1.9-.2,2.8.2.2.4.4.6.5-.2,0-.3.2-.5.3-1.2.9-1.4,2.5-.5,3.7.2.3.5.5.7.7-.7,1.7-1.7,5.3-1,10.4-1,0-1.9.8-2,1.8s.1,1.2.5,1.6c-1.1.6-2,2-2.3,3.8s.2,3.4,1.1,4.3c-.5.3-.8.8-.9,1.4-.1,1,.5,2,1.4,2.3-2.4,5.4-2.2,9.4-1.9,10.9-.4,0-.7.2-1.1.5-1.2.9-1.4,2.5-.5,3.7.1.1.2.3.4.4-.2,0-.5.2-.7.4-.9.7-1.2,1.9-.6,2.7.6.8,1.9.9,2.8.2.2-.2.4-.4.5-.6,0,.2.2.3.3.5.9,1.2,2.5,1.4,3.7.5.4-.3.7-.7.8-1.1,1.1.5,3.2,1.3,6.3.9.2.8.9,1.4,1.7,1.6s1.2-.1,1.6-.5c.6,1.1,2,2,3.8,2.3,1.8.3,3.4-.2,4.3-1.1.3.5.8.8,1.4.9s1.7-.3,2.1-1c2.9,1.2,5.1,1.1,6.3.9,0,.4.2.9.5,1.3.9,1.2,2.5,1.4,3.7.5.1-.1.3-.2.4-.4,0,.2.2.5.4.7.7.9,1.9,1.2,2.7.6.8-.6.9-1.9.2-2.8-.2-.2-.4-.4-.6-.5ZM155.2,164.3l-31-4.5,5.8-40,31,4.5-5.8,40h0Z"/>
      <g>
        <path d="M113.5,146.1l-.6-.9c-1.8-2.9-2.9-6.6-3-10.9,0-1.2,0-1.5.2-2,.5-1.1,1.8-1.9,2.7-1.7.6.1,1,.4,2.1,1.7,2.9,3.2,6.6,6.1,10.2,8,3.5,1.9,6.1,2.5,9.6,2.6,3.8,0,7.7-1.1,11.6-3.2,1.6-.9,3.4-2.1,3.9-2.8.5-.5.5-.7.9-1.9.2-.7.6-1.6.8-2,.3-.6.4-.7.8-.8.6-.2.9,0,2.3,1,1.8,1.4,2.1,1.8,1.8,2.5s-.7.9-1.5,1.6c-1.6,1.6-1.6,1.7-1.6,4,0,3-.3,4.5-1.4,6.8s-1,1.8-1.3,2.3c-1.3,1.8-3.4,3.6-5.6,4.8-1.2.7-5.3,2.1-6.4,2.3-.4,0-3.2.3-5.9,0s-5-.9-5-.9c-1.9-.6-2.9-1-4.8-1.9-1.2-.6-2.3-1.2-2.6-1.4,0,0-1.8-1.1-4-3.2-2.2-2.2-3.2-3.9-3.2-3.9Z"/>
        <path class="st0" d="M126.5,149c2.5,1,5.3,1.6,7.9,1.7,4.8.2,9.8-1.5,13.1-4.3,1.5-1.3,2.9-3.2,3.3-4.6.3-1-.2-1.9-1-1.6-.2,0-1,.6-1.8,1.1-2.2,1.4-3.6,2.1-6,3-2.6.9-4.3,1.2-6.7,1.2-3.4,0-6.2-.5-9.3-1.9-4.5-2-8.6-5.2-11.9-9.1-.5-.6-.9-1.1-1-1.1s-.3,0-.5,0c-.3.1-.3.1-.3.6,0,.6.9,3,1.6,4.3,2.5,4.6,7.3,8.7,12.7,10.8Z"/>
      </g>
    </g>
  </g>
  <rect class="st0" x="294.4" y="82.1" width="251.7" height="144.9"/>
  <g>
    <path d="M336.4,193.5l6.9-19.8c0-.2.3-.4.6-.4h4c.2,0,.5.1.6.4l6.9,19.8c.1.3,0,.5-.4.5h-4c-.2,0-.4,0-.5-.4l-.9-2.8h-7.5l-.9,2.8c0,.3-.3.4-.5.4h-3.9c-.3,0-.5-.2-.4-.5ZM348.3,186.7l-2.4-7.5-2.4,7.5h4.8Z"/>
    <path d="M356.9,188.3v-8.4c0-.3.2-.4.4-.4h3.6c.3,0,.5.2.5.4v7.3c0,1.9.8,2.9,2.4,2.9s2.5-1,2.5-2.9v-7.3c0-.3.2-.4.5-.4h3.6c.3,0,.5.2.5.4v13.6c0,.3-.2.4-.5.4h-3.5c-.3,0-.4-.1-.5-.5v-1.7c-.9,1.5-2.3,2.5-4.4,2.5-3,0-5.2-2.2-5.2-6Z"/>
    <path d="M375.6,189.7v-6.7h-1.8c-.3,0-.4-.2-.4-.4v-2.6c0-.3.2-.4.4-.4h1.8v-3.4c0-.3.2-.4.5-.4h3.6c.3,0,.5.2.5.4v3.4h2.2c.3,0,.4.2.4.4v2.6c0,.3-.2.4-.4.4h-2.2v6.2c0,.8.5,1.2,1.2,1.2s.5,0,.9,0c.3,0,.5.1.5.4v2.5c0,.7-1.6.9-2.6.9-2.4,0-4.7-1.1-4.7-4.5Z"/>
    <path d="M384.3,186.7c0-4.3,3.2-7.6,7.6-7.6s7.6,3.3,7.6,7.6-3.3,7.6-7.6,7.6-7.6-3.3-7.6-7.6ZM391.9,190.2c1.8,0,3.3-1.3,3.3-3.5s-1.4-3.5-3.3-3.5-3.3,1.3-3.3,3.5,1.4,3.5,3.3,3.5Z"/>
    <path d="M402.4,193.5v-19.8c0-.3.2-.4.4-.4h7.2c3.7,0,5.7,2.4,5.7,5.3s-1.3,3.7-2.7,4.3c2,.5,4,2.2,4,5.2s-2.4,5.9-7.4,5.9h-6.9c-.3,0-.4-.2-.4-.4ZM409.1,181.4c1.4,0,2.3-.6,2.3-2.1s-.9-1.9-2.3-1.9h-2v4h2ZM409.4,189.8c1.7,0,2.9-.7,2.9-2.5s-1.2-2.4-2.9-2.4h-2.4v4.8h2.4Z"/>
    <path d="M418.9,186.7c0-4.3,2.8-7.6,6.8-7.6s3.6.8,4.5,2.2v-1.4c0-.3.3-.4.5-.4h3.3c.3,0,.5.2.5.4v13.6c0,.3-.2.4-.5.4h-3.3c-.3,0-.5-.2-.5-.4v-1.4c-1,1.4-2.5,2.2-4.6,2.2-4,0-6.8-3.3-6.8-7.6ZM426.7,190.2c2,0,3.3-1.4,3.3-3.5s-1.4-3.5-3.3-3.5-3.4,1.4-3.4,3.5,1.4,3.5,3.4,3.5Z"/>
    <path d="M437.8,193.5v-13.6c0-.3.2-.4.4-.4h3.5c.3,0,.4.1.4.5v1.7c1-1.5,2.3-2.5,4.4-2.5,3,0,5.2,2.2,5.2,6v8.4c0,.3-.2.4-.5.4h-3.6c-.3,0-.5-.2-.5-.4v-7.3c0-1.9-.8-2.9-2.4-2.9s-2.5,1-2.5,2.9v7.3c0,.3-.2.4-.5.4h-3.6c-.3,0-.4-.2-.4-.4Z"/>
    <path d="M454.4,186.7c0-4.3,2.8-7.6,6.8-7.6s3.6.8,4.5,2.2v-1.4c0-.3.3-.4.5-.4h3.3c.3,0,.5.2.5.4v13.6c0,.3-.2.4-.5.4h-3.3c-.3,0-.5-.2-.5-.4v-1.4c-1,1.4-2.5,2.2-4.6,2.2-4,0-6.8-3.3-6.8-7.6ZM462.2,190.2c2,0,3.3-1.4,3.3-3.5s-1.4-3.5-3.3-3.5-3.4,1.4-3.4,3.5,1.4,3.5,3.4,3.5Z"/>
    <path d="M473.3,193.5v-13.6c0-.3.2-.4.4-.4h3.5c.3,0,.4.1.4.5v1.7c1-1.5,2.3-2.5,4.4-2.5,3,0,5.2,2.2,5.2,6v8.4c0,.3-.2.4-.5.4h-3.6c-.3,0-.5-.2-.5-.4v-7.3c0-1.9-.8-2.9-2.4-2.9s-2.5,1-2.5,2.9v7.3c0,.3-.2.4-.5.4h-3.6c-.3,0-.4-.2-.4-.4Z"/>
    <path d="M489.9,186.7c0-4.3,2.8-7.6,6.8-7.6s3.6.8,4.5,2.2v-1.4c0-.3.3-.4.5-.4h3.3c.3,0,.5.2.5.4v13.6c0,.3-.2.4-.5.4h-3.3c-.3,0-.5-.2-.5-.4v-1.4c-1,1.4-2.5,2.2-4.6,2.2-4,0-6.8-3.3-6.8-7.6ZM497.6,190.2c2,0,3.3-1.4,3.3-3.5s-1.4-3.5-3.3-3.5-3.4,1.4-3.4,3.5,1.4,3.5,3.4,3.5Z"/>
  </g>
  <path class="st1" d="M442.7,163.4c-.4,2.1-2.4,3.4-4.4,3l-.6,3.3c2,.4,3.4,2.4,3,4.4s-2.4,3.4-4.4,3-3.4-2.4-3-4.4,0,0,0,0l-3.3-.6s0,0,0,0c-.4,2.1-2.4,3.4-4.4,3s-3.4-2.4-3-4.4,0,0,0,0l-3.3-.6s0,0,0,0c-.4,2.1-2.4,3.4-4.4,3s-3.4-2.4-3-4.4,0,0,0,0l-3.3-.6s0,0,0,0c-.4,2.1-2.4,3.4-4.4,3s-3.4-2.4-3-4.4,0,0,0,0l-3.3-.6s0,0,0,0c-.4,2.1-2.4,3.4-4.4,3s-3.4-2.4-3-4.4,2.4-3.4,4.4-3,0,0,0,0l.6-3.3s0,0,0,0c-2.1-.4-3.4-2.4-3-4.4s2.4-3.4,4.4-3,0,0,0,0l.6-3.3s0,0,0,0c-2.1-.4-3.4-2.4-3-4.4s2.4-3.4,4.4-3,0,0,0,0l.6-3.3s0,0,0,0c-2.1-.4-3.4-2.4-3-4.4s2.4-3.4,4.4-3,0,0,0,0l.6-3.3s0,0,0,0c-2.1-.4-3.4-2.4-3-4.4s2.4-3.4,4.4-3,3.4,2.4,3,4.4l3.3.6c.4-2,2.4-3.4,4.4-3s3.4,2.4,3,4.4l3.3.6c.4-2,2.4-3.4,4.4-3s3.4,2.4,3,4.4l3.3.6c.4-2,2.4-3.4,4.4-3s3.4,2.4,3,4.4l3.3.6c.4-2,2.4-3.4,4.4-3s3.4,2.4,3,4.4-2.4,3.4-4.4,3l-.6,3.3c2,.4,3.4,2.4,3,4.4s-2.4,3.4-4.4,3l-.6,3.3c2,.4,3.4,2.4,3,4.4-.4,2.1-2.4,3.4-4.4,3l-.6,3.3c2,.4,3.4,2.4,3,4.4ZM435.2,162.2c0,0,0-.1,0-.2s0-.1,0-.2l2-10.3c0,0,0-.1,0-.2s0-.1,0-.2l2-10.3c0,0,0-.1,0-.2s0-.1,0-.2l1.3-6.8-6.8-1.3c0,0-.1,0-.2,0s-.1,0-.2,0l-10.3-2c0,0-.1,0-.2,0s-.1,0-.2,0l-10.3-2c0,0-.1,0-.2,0s-.1,0-.2,0l-6.8-1.3-6.7,35.5,35.5,6.7s1.3-6.8,1.3-6.8Z"/>
  <g>
    <path d="M386.7,147.7l-.6-.9c-1.8-2.9-2.9-6.6-3-10.9,0-1.2,0-1.5.2-2,.5-1.1,1.8-1.9,2.7-1.7.6.1,1,.4,2.1,1.7,2.9,3.2,6.6,6.1,10.2,8,3.5,1.9,6.1,2.5,9.6,2.6,3.8,0,7.7-1.1,11.6-3.2,1.6-.9,3.4-2.1,3.9-2.8.5-.5.5-.7.9-1.9.2-.7.6-1.6.8-2,.3-.6.4-.7.8-.8.6-.2.9,0,2.3,1,1.8,1.4,2.1,1.8,1.8,2.5s-.7.9-1.5,1.6c-1.6,1.6-1.6,1.7-1.6,4,0,3-.3,4.5-1.4,6.8s-1,1.8-1.3,2.3c-1.3,1.8-3.4,3.6-5.6,4.8-1.2.7-5.3,2.1-6.4,2.3-.4,0-3.2.3-5.9,0s-5-.9-5-.9c-1.9-.6-2.9-1-4.8-1.9-1.2-.6-2.3-1.2-2.6-1.4,0,0-1.8-1.1-4-3.2-2.2-2.2-3.2-3.9-3.2-3.9Z"/>
    <path class="st0" d="M399.7,150.6c2.5,1,5.3,1.6,7.9,1.7,4.8.2,9.8-1.5,13.1-4.3,1.5-1.3,2.9-3.2,3.3-4.6.3-1-.2-1.9-1-1.6-.2,0-1,.6-1.8,1.1-2.2,1.4-3.6,2.1-6,3-2.6.9-4.3,1.2-6.7,1.2-3.4,0-6.2-.5-9.3-1.9-4.5-2-8.6-5.2-11.9-9.1-.5-.6-.9-1.1-1-1.1s-.3,0-.5,0c-.3.1-.3.1-.3.6,0,.6.9,3,1.6,4.3,2.5,4.6,7.3,8.7,12.7,10.8Z"/>
  </g>
  <rect class="st0" x="574.1" y="82.1" width="251.7" height="144.9"/>
  <g>
    <path d="M616.2,193.5l6.9-19.8c0-.2.3-.4.6-.4h4c.2,0,.5.1.6.4l6.9,19.8c.1.3,0,.5-.4.5h-4c-.2,0-.4,0-.5-.4l-.9-2.8h-7.5l-.9,2.8c0,.3-.3.4-.5.4h-3.9c-.3,0-.5-.2-.4-.5ZM628,186.7l-2.4-7.5-2.4,7.5h4.8Z"/>
    <path d="M636.7,188.3v-8.4c0-.3.2-.4.4-.4h3.6c.3,0,.5.2.5.4v7.3c0,1.9.8,2.9,2.4,2.9s2.5-1,2.5-2.9v-7.3c0-.3.2-.4.5-.4h3.6c.3,0,.5.2.5.4v13.6c0,.3-.2.4-.5.4h-3.5c-.3,0-.4-.1-.5-.5v-1.7c-.9,1.5-2.3,2.5-4.4,2.5-3,0-5.2-2.2-5.2-6Z"/>
    <path d="M655.3,189.7v-6.7h-1.8c-.3,0-.4-.2-.4-.4v-2.6c0-.3.2-.4.4-.4h1.8v-3.4c0-.3.2-.4.5-.4h3.6c.3,0,.5.2.5.4v3.4h2.2c.3,0,.4.2.4.4v2.6c0,.3-.2.4-.4.4h-2.2v6.2c0,.8.5,1.2,1.2,1.2s.5,0,.9,0c.3,0,.5.1.5.4v2.5c0,.7-1.6.9-2.6.9-2.4,0-4.7-1.1-4.7-4.5Z"/>
    <path d="M664.1,186.7c0-4.3,3.2-7.6,7.6-7.6s7.6,3.3,7.6,7.6-3.3,7.6-7.6,7.6-7.6-3.3-7.6-7.6ZM671.7,190.2c1.8,0,3.3-1.3,3.3-3.5s-1.4-3.5-3.3-3.5-3.3,1.3-3.3,3.5,1.4,3.5,3.3,3.5Z"/>
    <path d="M682.2,193.5v-19.8c0-.3.2-.4.4-.4h7.2c3.7,0,5.7,2.4,5.7,5.3s-1.3,3.7-2.7,4.3c2,.5,4,2.2,4,5.2s-2.4,5.9-7.4,5.9h-6.9c-.3,0-.4-.2-.4-.4ZM688.8,181.4c1.4,0,2.3-.6,2.3-2.1s-.9-1.9-2.3-1.9h-2v4h2ZM689.2,189.8c1.7,0,2.9-.7,2.9-2.5s-1.2-2.4-2.9-2.4h-2.4v4.8h2.4Z"/>
    <path d="M698.7,186.7c0-4.3,2.8-7.6,6.8-7.6s3.6.8,4.5,2.2v-1.4c0-.3.3-.4.5-.4h3.3c.3,0,.5.2.5.4v13.6c0,.3-.2.4-.5.4h-3.3c-.3,0-.5-.2-.5-.4v-1.4c-1,1.4-2.5,2.2-4.6,2.2-4,0-6.8-3.3-6.8-7.6ZM706.5,190.2c2,0,3.3-1.4,3.3-3.5s-1.4-3.5-3.3-3.5-3.4,1.4-3.4,3.5,1.4,3.5,3.4,3.5Z"/>
    <path d="M717.6,193.5v-13.6c0-.3.2-.4.4-.4h3.5c.3,0,.4.1.4.5v1.7c1-1.5,2.3-2.5,4.4-2.5,3,0,5.2,2.2,5.2,6v8.4c0,.3-.2.4-.5.4h-3.6c-.3,0-.5-.2-.5-.4v-7.3c0-1.9-.8-2.9-2.4-2.9s-2.5,1-2.5,2.9v7.3c0,.3-.2.4-.5.4h-3.6c-.3,0-.4-.2-.4-.4Z"/>
    <path d="M734.2,186.7c0-4.3,2.8-7.6,6.8-7.6s3.6.8,4.5,2.2v-1.4c0-.3.3-.4.5-.4h3.3c.3,0,.5.2.5.4v13.6c0,.3-.2.4-.5.4h-3.3c-.3,0-.5-.2-.5-.4v-1.4c-1,1.4-2.5,2.2-4.6,2.2-4,0-6.8-3.3-6.8-7.6ZM741.9,190.2c2,0,3.3-1.4,3.3-3.5s-1.4-3.5-3.3-3.5-3.4,1.4-3.4,3.5,1.4,3.5,3.4,3.5Z"/>
    <path d="M753.1,193.5v-13.6c0-.3.2-.4.4-.4h3.5c.3,0,.4.1.4.5v1.7c1-1.5,2.3-2.5,4.4-2.5,3,0,5.2,2.2,5.2,6v8.4c0,.3-.2.4-.5.4h-3.6c-.3,0-.5-.2-.5-.4v-7.3c0-1.9-.8-2.9-2.4-2.9s-2.5,1-2.5,2.9v7.3c0,.3-.2.4-.5.4h-3.6c-.3,0-.4-.2-.4-.4Z"/>
    <path d="M769.6,186.7c0-4.3,2.8-7.6,6.8-7.6s3.6.8,4.5,2.2v-1.4c0-.3.3-.4.5-.4h3.3c.3,0,.5.2.5.4v13.6c0,.3-.2.4-.5.4h-3.3c-.3,0-.5-.2-.5-.4v-1.4c-1,1.4-2.5,2.2-4.6,2.2-4,0-6.8-3.3-6.8-7.6ZM777.4,190.2c2,0,3.3-1.4,3.3-3.5s-1.4-3.5-3.3-3.5-3.4,1.4-3.4,3.5,1.4,3.5,3.4,3.5Z"/>
  </g>
  <path d="M1007.9,322c0-.3,0-.7-.2-1-.3-.6-.8-1.2-1.4-1.4-.3-.1-.7-.2-1-.2h-105.8c-.3,0-.7,0-1,.2-.6.3-1.2.8-1.4,1.4-.1.3-.2.7-.2,1v101.9c0,.3,0,.7.2,1,.3.6.8,1.2,1.4,1.4.3.1.7.2,1,.2h105.8c.3,0,.7,0,1-.2.6-.3,1.2-.8,1.4-1.4.1-.3.2-.7.2-1,0,0,0-101.9,0-101.9ZM912.8,335.4h79v75.1h-79v-75.1ZM993.4,330.1h-82.2l-5.4-5.4h92.9l-5.4,5.4ZM907.4,333.9v78.2l-5.4,5.4v-89l5.4,5.4ZM911.2,415.9h82.2l5.4,5.4h-92.9l5.4-5.4ZM997.2,412.1v-78.3l5.4-5.4v89l-5.4-5.4Z"/>
  <path d="M1001.2,128.8c0-.3,0-.7-.2-1-.3-.6-.8-1.2-1.4-1.4-.3-.1-.7-.2-1-.2h-144.8c-.3,0-.7,0-1,.2-.6.3-1.2.8-1.4,1.4-.1.3-.2.7-.2,1v101.9c0,.3,0,.7.2,1,.3.6.8,1.2,1.4,1.4.3.1.7.2,1,.2h144.8c.3,0,.7,0,1-.2.6-.3,1.2-.8,1.4-1.4.1-.3.2-.7.2-1,0,0,0-101.9,0-101.9ZM867.1,142.2h118v75.1h-118v-75.1ZM986.7,136.8h-121.2l-5.4-5.4h131.9l-5.4,5.4ZM861.8,140.6v78.2l-5.4,5.4v-89l5.4,5.4ZM865.5,222.7h121.2l5.4,5.4h-131.9l5.4-5.4ZM990.5,218.9v-78.3l5.4-5.4v89l-5.4-5.4Z"/>
  <path d="M725.1,130.3c0-.1,0-.3,0-.4,0-.3-.2-.6-.5-.7-.1,0-.3-.1-.4-.2l-44.7-8.1c-.1,0-.3,0-.4,0-.3,0-.6.2-.7.5,0,.1-.1.3-.2.4l-7.8,43c0,.1,0,.3,0,.4,0,.3.2.6.5.7.1,0,.3.1.4.2l44.7,8.1c.1,0,.3,0,.4,0,.3,0,.6-.2.7-.5,0-.1.1-.3.2-.4,0,0,7.8-43,7.8-43ZM684,128.6l33.4,6.1-5.8,31.7-33.4-6.1,5.8-31.7ZM718.4,132.5l-34.7-6.3-1.9-2.7,39.2,7.1-2.7,1.9ZM681.8,127.5l-6,33-2.7,1.9,6.8-37.6,1.9,2.7ZM677.1,162.5l34.7,6.3,1.9,2.7-39.2-7.1,2.7-1.9ZM713.7,167.5l6-33,2.7-1.9-6.8,37.6-1.9-2.7Z"/>
  <g>
    <path d="M666.5,147.7l-.6-.9c-1.8-2.9-2.9-6.6-3-10.9,0-1.2,0-1.5.2-2,.5-1.1,1.8-1.9,2.7-1.7.6.1,1,.4,2.1,1.7,2.9,3.2,6.6,6.1,10.2,8,3.5,1.9,6.1,2.5,9.6,2.6,3.8,0,7.7-1.1,11.6-3.2,1.6-.9,3.4-2.1,3.9-2.8.5-.5.5-.7.9-1.9.2-.7.6-1.6.8-2,.3-.6.4-.7.8-.8.6-.2.9,0,2.3,1,1.8,1.4,2.1,1.8,1.8,2.5s-.7.9-1.5,1.6c-1.6,1.6-1.6,1.7-1.6,4,0,3-.3,4.5-1.4,6.8s-1,1.8-1.3,2.3c-1.3,1.8-3.4,3.6-5.6,4.8-1.2.7-5.3,2.1-6.4,2.3-.4,0-3.2.3-5.9,0s-5-.9-5-.9c-1.9-.6-2.9-1-4.8-1.9-1.2-.6-2.3-1.2-2.6-1.4,0,0-1.8-1.1-4-3.2-2.2-2.2-3.2-3.9-3.2-3.9Z"/>
    <path class="st0" d="M679.5,150.6c2.5,1,5.3,1.6,7.9,1.7,4.8.2,9.8-1.5,13.1-4.3,1.5-1.3,2.9-3.2,3.3-4.6.3-1-.2-1.9-1-1.6-.2,0-1,.6-1.8,1.1-2.2,1.4-3.6,2.1-6,3-2.6.9-4.3,1.2-6.7,1.2-3.4,0-6.2-.5-9.3-1.9-4.5-2-8.6-5.2-11.9-9.1-.5-.6-.9-1.1-1-1.1s-.3,0-.5,0c-.3.1-.3.1-.3.6,0,.6.9,3,1.6,4.3,2.5,4.6,7.3,8.7,12.7,10.8Z"/>
  </g>
</svg>