<?xml version="1.0" encoding="UTF-8"?>
<svg id="Layer_1" xmlns="http://www.w3.org/2000/svg" version="1.1" viewBox="0 0 968.1 136.9">
  <!-- Generator: Adobe Illustrator 29.4.0, SVG Export Plug-In . SVG Version: 2.1.0 Build 152)  -->
  <path d="M15.7,121.5L53.8,11.5c.5-1.3,1.8-2,3.1-2h22.3c1.3,0,2.6.7,3.1,2l38,110c.7,1.6-.2,2.8-2,2.8h-22c-1.3,0-2.3-.5-2.8-2l-4.9-15.4h-41.3l-4.9,15.4c-.5,1.5-1.5,2-2.8,2h-21.8c-1.8,0-2.8-1.1-2.1-2.8ZM81.3,83.9l-13.3-41.5-13.3,41.5h26.6Z"/>
  <path d="M129.2,93v-46.6c0-1.5,1-2.5,2.5-2.5h20c1.5,0,2.6,1,2.6,2.5v40.7c0,10.7,4.6,16.2,13.4,16.2s13.9-5.6,13.9-16.2v-40.7c0-1.5,1.1-2.5,2.6-2.5h19.8c1.5,0,2.6,1,2.6,2.5v75.4c0,1.5-1.1,2.5-2.6,2.5h-19.2c-1.5,0-2.5-.7-2.6-2.6l-.7-9.3c-4.6,8.2-12,13.9-23.6,13.9-16.7,0-28.9-12.3-28.9-33.3Z"/>
  <path d="M232.7,100.5v-37.2h-10c-1.5,0-2.5-1-2.5-2.5v-14.4c0-1.5,1-2.5,2.5-2.5h10v-18.9c0-1.5,1.1-2.5,2.6-2.5h20.2c1.5,0,2.6,1,2.6,2.5v18.9h12.3c1.5,0,2.5,1,2.5,2.5v14.4c0,1.5-1,2.5-2.5,2.5h-12.3v34.6c0,4.3,2.8,6.6,6.9,6.6s3,0,5.1-.2c1.6-.2,3,.7,3,2.3v13.6c0,4.1-8.9,5.1-14.4,5.1-13.3,0-25.9-6.1-25.9-24.8Z"/>
  <path d="M281.4,84.1c0-23.8,17.9-42.1,42.1-42.1s42.3,18.4,42.3,42.1-18,42.1-42.3,42.1-42.1-18.4-42.1-42.1ZM323.5,103.3c10.2,0,18-7.4,18-19.2s-7.9-19.2-18-19.2-18,7.4-18,19.2,7.9,19.2,18,19.2Z"/>
  <path d="M381.6,121.8V12c0-1.5,1-2.5,2.5-2.5h39.8c20.5,0,31.8,13.3,31.8,29.2s-7.4,20.3-14.8,23.9c11.1,3,22.3,12.3,22.3,29s-13.3,32.6-41,32.6h-38.2c-1.5,0-2.5-1-2.5-2.5ZM418.5,54.4c7.9,0,12.8-3.1,12.8-11.5s-4.9-10.7-12.8-10.7h-11.3v22.1h11.3ZM420.6,101.5c9.7,0,16.2-4.1,16.2-13.6s-6.6-13.3-16.2-13.3h-13.4v26.9h13.4Z"/>
  <path d="M473.3,84.1c0-23.8,15.4-42.1,37.7-42.1s19.8,4.6,25.1,12.1l.3-7.7c0-1.5,1.1-2.5,2.6-2.5h18.2c1.5,0,2.6,1,2.6,2.5v75.4c0,1.5-1.3,2.5-2.8,2.5h-18c-1.5,0-2.6-1-2.6-2.5l-.3-7.9c-5.4,7.7-13.6,12.3-25.1,12.3-22.3,0-37.7-18.2-37.7-42.1ZM516.4,103.5c11,0,18.5-7.7,18.5-19.5s-7.5-19.2-18.5-19.2-18.7,7.7-18.7,19.3,8,19.3,18.7,19.3Z"/>
  <path d="M578,121.8V46.4c0-1.5,1-2.5,2.5-2.5h19.3c1.5,0,2.5.7,2.5,2.6l.8,9.3c4.6-8.2,12-13.9,23.4-13.9,16.7,0,29,12.3,29,33.3v46.6c0,1.5-1.1,2.5-2.6,2.5h-19.8c-1.5,0-2.6-1-2.6-2.5v-40.7c0-10.7-4.6-16.2-13.4-16.2s-13.9,5.6-13.9,16.2v40.7c0,1.5-1.1,2.5-2.6,2.5h-20c-1.5,0-2.5-1-2.5-2.5Z"/>
  <path d="M669.9,84.1c0-23.8,15.4-42.1,37.7-42.1s19.8,4.6,25.1,12.1l.3-7.7c0-1.5,1.1-2.5,2.6-2.5h18.2c1.5,0,2.6,1,2.6,2.5v75.4c0,1.5-1.3,2.5-2.8,2.5h-18c-1.5,0-2.6-1-2.6-2.5l-.3-7.9c-5.4,7.7-13.6,12.3-25.1,12.3-22.3,0-37.7-18.2-37.7-42.1ZM713,103.5c11,0,18.5-7.7,18.5-19.5s-7.5-19.2-18.5-19.2-18.7,7.7-18.7,19.3,8,19.3,18.7,19.3Z"/>
  <path d="M774.6,121.8V46.4c0-1.5,1-2.5,2.5-2.5h19.3c1.5,0,2.5.7,2.5,2.6l.8,9.3c4.6-8.2,12-13.9,23.4-13.9,16.7,0,29,12.3,29,33.3v46.6c0,1.5-1.1,2.5-2.6,2.5h-19.8c-1.5,0-2.6-1-2.6-2.5v-40.7c0-10.7-4.6-16.2-13.4-16.2s-13.9,5.6-13.9,16.2v40.7c0,1.5-1.1,2.5-2.6,2.5h-20c-1.5,0-2.5-1-2.5-2.5Z"/>
  <path d="M866.5,84.1c0-23.8,15.4-42.1,37.7-42.1s19.8,4.6,25.1,12.1l.3-7.7c0-1.5,1.1-2.5,2.6-2.5h18.2c1.5,0,2.6,1,2.6,2.5v75.4c0,1.5-1.3,2.5-2.8,2.5h-18c-1.5,0-2.6-1-2.6-2.5l-.3-7.9c-5.4,7.7-13.6,12.3-25.1,12.3-22.3,0-37.7-18.2-37.7-42.1ZM909.6,103.5c11,0,18.5-7.7,18.5-19.5s-7.5-19.2-18.5-19.2-18.7,7.7-18.7,19.3,8,19.3,18.7,19.3Z"/>
</svg>