<?xml version="1.0" encoding="UTF-8"?>
<svg id="Layer_1" xmlns="http://www.w3.org/2000/svg" version="1.1" viewBox="0 0 1080.5 1080.5">
  <!-- Generator: Adobe Illustrator 29.4.0, SVG Export Plug-In . SVG Version: 2.1.0 Build 152)  -->
  <defs>
    <style>
      .st0 {
        fill: #ffd132;
      }
    </style>
  </defs>
  <path d="M1074.3,245.6c.5-2.6.4-5.4-.2-8-1.1-5.3-4.5-10.1-9-13-2.3-1.5-4.8-2.6-7.4-3L253.8,75.2c-2.6-.5-5.4-.4-8,.2-5.3,1.1-10.1,4.5-13,9-1.5,2.3-2.6,4.8-3,7.4L88.8,866c-.5,2.6-.4,5.4.2,8,1.1,5.3,4.5,10.1,9,13,2.3,1.5,4.8,2.6,7.4,3l803.9,146.3c2.6.5,5.4.4,8-.2,5.3-1.1,10.1-4.5,13-9,1.5-2.3,2.6-4.8,3-7.4,0,0,140.9-774.2,140.9-774.2ZM333.4,216l600.2,109.2-103.8,570.4-600.2-109.2,103.8-570.4ZM953,286.7l-624.2-113.6-33.3-48.2,705.7,128.5-48.2,33.3ZM294.8,196.5l-108.2,594.3-48.2,33.3,123-675.8,33.3,48.2ZM210.1,825l624.2,113.6,33.3,48.2-705.7-128.5,48.2-33.3ZM868.3,915.1l108.2-594.5,48.2-33.3-123,676-33.3-48.2Z"/>
  <g>
    <path d="M55.4,550.3l-8.9-16.4C16.9,479.4,2.8,411.1,5.2,334c.7-22.1,1.6-27,6.6-35.7,10.7-18.5,35-31.7,50.8-27.5,11,2.9,17.8,9,36,32.3,48.2,61.6,111,118.2,173.3,156.4,61.4,37.6,106.8,53,170.1,57.7,69.1,5.1,139.7-9.5,211.7-43.6,29.7-14.1,62.9-34.4,73.6-44.8,9.1-9,10.3-11,19.2-33.2,5.2-13,12.5-28.9,16.2-35.3,6-10.5,7.6-12,15.3-14,10.5-2.8,16.6.3,40.4,20.9,30.8,26.6,36.1,35.2,29.1,47.4-1.8,3.1-14.6,15.5-28.5,27.7-31,27.1-31.7,28.5-33.9,70.4-2.9,53-10.5,80.4-33.5,120.5-7.9,13.8-19.5,31.1-26.4,39.4-25.8,31.1-65.2,60.8-105.6,79.6-22.4,10.4-97.2,31.2-118.6,33-6.5.5-57.9,1.2-105.9-6.2-46.3-7.1-89.2-22.2-89.2-22.2-33.4-13.6-51-22.2-83.8-40.9-20.4-11.7-40.6-24-44.9-27.5,0,0-31.9-21.7-68.2-63.2-36.3-41.5-53.4-74.9-53.4-74.9Z"/>
    <path class="st0" d="M285.9,618.6c43,20.4,94.1,35.1,139.1,39.9,86,9.2,178.1-14.3,239.7-61.2,29.1-22.2,56-54.7,65.6-79.4,7.1-18.2-1.4-34.4-15.6-29.7-3.4,1.1-18.8,9.2-34.2,17.9-41,23.2-66.9,33.8-111.4,45.7-47.4,12.7-77.9,16-122.5,13.4-61.1-3.6-110.4-17.4-164.4-45.9-78-41.2-148.5-103.2-203.1-178.5-7.7-10.6-15.5-20.2-17.4-21.2-1.9-1.1-5.9-1.1-9-.1-5.5,1.8-5.6,2.1-5.9,10.4-.3,11.2,12.9,54.9,23.9,79.1,38.6,84.9,120.1,164.2,215.3,209.5Z"/>
  </g>
</svg>