<?xml version="1.0" encoding="UTF-8"?>
<svg id="Layer_1" xmlns="http://www.w3.org/2000/svg" version="1.1" viewBox="0 0 1080.5 1080.5">
  <!-- Generator: Adobe Illustrator 29.4.0, SVG Export Plug-In . SVG Version: 2.1.0 Build 152)  -->
  <defs>
    <style>
      .st0 {
        fill: none;
      }

      .st1 {
        fill: #fcc715;
      }
    </style>
  </defs>
  <rect class="st1" x="-17" y="-17.5" width="1116.3" height="1116.3"/>
  <g>
    <path class="st0" d="M297.7,178.6l-32.6-47.1-47.9,263.3c12,9.5,24.1,18.5,36.3,26.8l44.2-243Z"/>
    <path class="st0" d="M170.6,650.6l-25.8,141.8,47.1-32.6,15.4-84.5c-12.1-7.2-21.9-13.4-24.8-15.7,0,0-4.5-3-11.9-9Z"/>
    <polygon class="st0" points="988.4 234.2 298.3 108.6 330.9 155.7 941.3 266.8 988.4 234.2"/>
    <path class="st0" d="M648.7,449.6c29-13.8,61.6-33.6,71.9-43.8,8.9-8.8,10.1-10.8,18.7-32.4,5.1-12.7,12.2-28.2,15.8-34.5,5.9-10.3,7.5-11.7,14.9-13.7,10.3-2.8,16.2.3,39.5,20.4,30.1,26,35.3,34.5,28.5,46.4-1.7,3-14.3,15.2-27.8,27.1-30.3,26.5-31,27.8-33.2,68.9-2.8,51.9-10.3,78.6-32.8,117.8-7.7,13.5-19.1,30.4-25.8,38.5-25.3,30.4-63.8,59.5-103.3,77.8-21.9,10.2-95.1,30.6-115.9,32.3-6.3.5-56.7,1.1-103.5-6.1-45.2-7-87.2-21.7-87.2-21.7-25.9-10.6-42.1-18.1-63.8-29.9l-10.7,58.9,586.9,106.8,101.5-557.8-586.9-106.8-45,247.1c52.7,30.3,94.7,43.3,151.3,47.5,67.6,5,136.6-9.2,207-42.6Z"/>
    <polygon class="st0" points="214.8 793.2 167.7 825.8 857.8 951.4 825.2 904.3 214.8 793.2"/>
    <polygon class="st0" points="858.5 881.3 891 928.4 1011.4 267.4 964.3 300 858.5 881.3"/>
    <path d="M1059.7,218.8c-1.1-5.1-4.4-9.9-8.8-12.7-2.2-1.4-4.7-2.5-7.3-3L257.5,60c-2.6-.5-5.3-.3-7.9.2-5.1,1.1-9.9,4.4-12.7,8.8-1.4,2.2-2.5,4.7-3,7.3l-52.4,288.1c11.6,10.6,23.5,20.9,35.6,30.5l47.9-263.3,32.6,47.1-44.2,243c7.3,5,14.6,9.7,21.9,14.2,5.1,3.1,10.1,6.1,15.1,8.9l45-247.1,586.9,106.8-101.5,557.8-586.9-106.8,10.7-58.9c-5.6-3-11.5-6.4-18.1-10.1-6.6-3.8-13.2-7.6-19.2-11.2l-15.4,84.5-47.1,32.6,25.8-141.8c-8.6-6.8-21.1-17.6-35.3-32l-39.1,214.7c-.5,2.6-.3,5.3.2,7.9,1.1,5.1,4.4,9.9,8.8,12.7,2.2,1.4,4.7,2.5,7.3,3l786.1,143.1c2.6.5,5.3.3,7.9-.2,5.1-1.1,9.9-4.4,12.7-8.8,1.4-2.2,2.5-4.7,3-7.3l137.8-757c.5-2.6.3-5.3-.2-7.9ZM330.9,155.7l-32.6-47.1,690.1,125.6-47.1,32.6-610.4-111.1ZM167.7,825.8l47.1-32.6,610.4,111.1,32.6,47.1-690.1-125.6ZM891,928.4l-32.6-47.1,105.8-581.3,47.1-32.6-120.3,661Z"/>
    <path d="M78.4,386.5c-10.7-23.6-23.7-66.4-23.4-77.3.2-8.2.4-8.5,5.7-10.2,3-1,7-.9,8.8.1,1.8,1.1,9.5,10.4,17,20.8,25.4,35,54.2,67,85.7,95.3l9.2-50.8c-27.4-25.1-53.2-52.7-75.7-81.5-17.8-22.7-24.5-28.7-35.2-31.6-15.5-4.1-39.2,8.7-49.7,26.9-4.9,8.5-5.8,13.2-6.4,34.9-2.4,75.4,11.4,142.2,40.4,195.5l8.7,16s16.7,32.7,52.2,73.2c6.7,7.6,13.2,14.6,19.4,20.8l22-120.8c-33.7-33.9-61-72-78.9-111.4Z"/>
    <path d="M285.2,494.4c52.8,27.9,101,41.4,160.8,44.9,43.7,2.6,73.5-.7,119.8-13.1,43.5-11.6,68.9-22.1,109-44.7,15.1-8.6,30.2-16.4,33.5-17.5,13.9-4.6,22.2,11.2,15.2,29-9.4,24.2-35.7,55.9-64.2,77.6-60.2,45.9-150.2,68.9-234.3,59.8-44.1-4.7-94-19.1-136-39-7.8-3.7-15.5-7.7-23.1-11.8l-21.3,117.1c21.7,11.8,37.9,19.3,63.8,29.9,0,0,42,14.8,87.2,21.7,46.9,7.2,97.2,6.6,103.5,6.1,20.9-1.8,94.1-22.2,115.9-32.3,39.5-18.3,78-47.4,103.3-77.8,6.7-8.1,18.1-25.1,25.8-38.5,22.5-39.3,30-66,32.8-117.8,2.2-41,2.9-42.4,33.2-68.9,13.6-11.9,26.1-24.1,27.8-27.1,6.8-11.9,1.6-20.3-28.5-46.4-23.2-20.1-29.2-23.2-39.5-20.4-7.5,2-9,3.5-14.9,13.7-3.6,6.3-10.7,21.8-15.8,34.5-8.7,21.6-9.8,23.6-18.7,32.4-10.4,10.2-42.9,30.1-71.9,43.8-70.4,33.4-139.4,47.6-207,42.6-56.6-4.2-98.6-17.2-151.3-47.5l-8.7,47.8c1.2.6,2.3,1.3,3.5,1.9Z"/>
    <path d="M244.5,470.6l8.9-48.9c-12.2-8.3-24.3-17.3-36.3-26.8l-9.1,50c11.9,9.1,24,17.7,36.5,25.7Z"/>
    <path d="M192.6,530l-22,120.6c7.5,6,11.9,9,11.9,9,2.8,2.3,12.6,8.4,24.8,15.7l21.5-118.3c-12.5-8.4-24.6-17.5-36.2-27Z"/>
    <path d="M228.8,557l-21.5,118.3c6,3.6,12.6,7.4,19.2,11.2,6.6,3.7,12.5,7.1,18.1,10.1l21.3-117.1c-12.7-6.9-25.1-14.5-37.1-22.6Z"/>
    <path d="M192.6,530c-12.4-10.2-24.2-20.9-35.3-32.1l-22,120.8c14.3,14.4,26.8,25.1,35.3,32l22-120.6Z"/>
    <path d="M208.1,444.8l9.1-50c-12.1-9.6-24-19.8-35.6-30.5l-9.2,50.8c11.6,10.4,23.5,20.3,35.8,29.7Z"/>
    <path d="M281.7,492.5l8.7-47.8c-4.9-2.8-9.9-5.8-15.1-8.9-7.3-4.5-14.6-9.2-21.9-14.2l-8.9,48.9c12.2,7.9,24.6,15.2,37.2,22Z"/>
  </g>
</svg>